<svg width="39" height="39" viewBox="0 0 39 39" fill="none" xmlns="http://www.w3.org/2000/svg">
<path opacity="0.4" d="M23.3836 8.87238C22.6116 8.73027 21.9025 9.22122 21.7556 9.97219C21.6086 10.7232 22.1028 11.4564 22.8539 11.6033C25.1151 12.0426 26.8611 13.7868 27.3036 16.0477V16.0494C27.4296 16.7002 28.0046 17.1734 28.6668 17.1734C28.7557 17.1734 28.8445 17.1653 28.935 17.1492C29.686 16.999 30.1802 16.2674 30.0333 15.5148C29.3727 12.1379 26.7642 9.52968 23.3836 8.87238" fill="white"/>
<path opacity="0.4" d="M23.2828 3.24524C22.921 3.19356 22.5576 3.30015 22.2685 3.52947C21.9713 3.76203 21.7855 4.09795 21.7452 4.47424C21.6596 5.23489 22.2103 5.92287 22.9727 6.00847C28.23 6.59309 32.3164 10.6741 32.9075 15.9293C32.9867 16.6334 33.5795 17.1647 34.2869 17.1647C34.3402 17.1647 34.3919 17.1615 34.4452 17.1551C34.8151 17.1147 35.1446 16.9322 35.3771 16.6415C35.6081 16.3508 35.7131 15.989 35.6711 15.6192C34.9346 9.06239 29.842 3.97359 23.2828 3.24524" fill="white"/>
<path fill-rule="evenodd" clip-rule="evenodd" d="M17.8914 20.9644C24.3609 27.4093 25.8285 19.9533 29.9477 24.0551C33.9189 28.0112 36.2014 28.8038 31.1699 33.8161C30.5397 34.3208 26.5354 40.3928 12.4629 26.3739C-1.61126 12.3533 4.47874 8.35901 4.98537 7.73117C10.029 2.70496 10.8107 4.9926 14.7819 8.94869C18.9011 13.0522 11.4218 14.5195 17.8914 20.9644Z" fill="white"/>
</svg>
