<svg width="25" height="27" viewBox="0 0 25 27" fill="none" xmlns="http://www.w3.org/2000/svg">
<path d="M13.0009 4.05C13.0009 4.5468 12.6126 4.95 12.1342 4.95C11.6558 4.95 11.2676 4.5468 11.2676 4.05V0.9C11.2676 0.4032 11.6558 0 12.1342 0C12.6126 0 13.0009 0.4032 13.0009 0.9V4.05Z" fill="white"/>
<path d="M7.54646 5.21365L5.37979 2.96365C5.22292 2.80075 5.00626 2.69995 4.76706 2.69995C4.28866 2.69995 3.90039 3.10315 3.90039 3.59995C3.90039 3.84835 3.99746 4.07335 4.15432 4.23625L6.32099 6.48625C6.47786 6.64915 6.69452 6.74995 6.93372 6.74995C7.41212 6.74995 7.80039 6.34675 7.80039 5.84995C7.80039 5.60155 7.70332 5.37655 7.54646 5.21365V5.21365Z" fill="white"/>
<path d="M16.7207 5.21365L18.8874 2.96365C19.0438 2.80075 19.2605 2.69995 19.5001 2.69995C19.9785 2.69995 20.3668 3.10315 20.3668 3.59995C20.3668 3.84835 20.2697 4.07335 20.1129 4.23625L17.9462 6.48625C17.7898 6.64915 17.5731 6.74995 17.3335 6.74995C16.8551 6.74995 16.4668 6.34675 16.4668 5.84995C16.4668 5.60155 16.5639 5.37655 16.7207 5.21365Z" fill="white"/>
<path d="M7.36667 14.6155C7.36667 14.3774 7.3879 14.1623 7.4178 13.9585C3.28857 14.0449 0 15.5168 0 17.3249C0 19.1888 3.49223 20.6999 7.8 20.6999C8.5306 20.6999 9.23477 20.6531 9.90513 20.5721C8.39627 18.5597 7.36667 16.3799 7.36667 14.6155Z" fill="white"/>
<path d="M12.9977 15.3571L11.943 16.4524C11.8256 16.5744 11.6631 16.65 11.4837 16.65C11.1244 16.65 10.8337 16.3476 10.8337 15.975C10.8337 15.7887 10.9065 15.6199 11.0239 15.4975L12.3109 14.161C11.7294 13.0293 11.3545 11.9142 11.2826 10.9138L9.17053 13.1062C8.83686 13.4536 8.66699 13.9612 8.66699 14.6155C8.66699 18.4734 14.9486 25.2 18.5518 25.2C19.0809 25.2 19.5285 25.0249 19.847 24.6942L21.9894 22.473C19.0835 22.153 15.2043 18.8365 12.9977 15.3571V15.3571Z" fill="white"/>
<path d="M10.9118 21.8123C10.0633 21.9194 9.17713 22.0499 7.8 22.0499C6.78297 22.0499 5.73517 21.9752 4.76667 21.8236V22.7249C4.76667 23.0975 4.4759 23.3999 4.11667 23.3999C3.75743 23.3999 3.46667 23.0975 3.46667 22.7249V21.5657C2.07783 21.2251 0.860167 20.7013 0 19.979V22.7249C0 24.9169 4.01873 26.0999 7.8 26.0999C10.325 26.0999 12.688 25.5946 14.1249 24.749C13.0017 23.9453 11.8946 22.9288 10.9118 21.8123V21.8123Z" fill="white"/>
<path d="M17.3337 10.1156C17.3337 12.9326 20.2552 16.2 22.8769 16.2C23.0619 16.2 23.1928 16.1865 23.3167 16.002C22.0414 13.5914 19.675 11.0295 17.4321 9.62598C17.3112 9.78483 17.3337 9.90678 17.3337 10.1156V10.1156Z" fill="white"/>
<path d="M22.9674 17.55C19.6004 17.55 16.034 13.865 16.034 9.90005C16.034 9.5711 16.1255 9.2669 16.2737 9.0014C15.622 8.71295 15.0006 8.55005 14.4442 8.55005C13.2339 8.55005 12.5674 9.266 12.5674 10.5656C12.5674 14.4234 18.8394 21.15 22.4361 21.15H22.4543C23.5901 21.1424 24.2674 20.3859 24.2674 19.125C24.2674 18.5585 24.1296 17.9294 23.8882 17.2697C23.6208 17.4447 23.3067 17.55 22.9674 17.55Z" fill="white"/>
</svg>
