<svg width="23" height="25" viewBox="0 0 23 25" fill="none" xmlns="http://www.w3.org/2000/svg">
<path d="M6.69977 9C6.85057 9 6.9966 8.9442 7.111 8.84205L11.5024 4.94505C11.6276 4.8339 11.7 4.67145 11.7 4.5C11.7 4.32855 11.6276 4.1661 11.5024 4.0545L7.111 0.1575C6.9966 0.0558 6.85057 0 6.69977 0C6.35007 0 6.06667 0.2943 6.06667 0.65745V1.54125C2.51723 3.1545 0 7.25175 0 11.925C0 17.4537 3.56937 22.6768 9.4783 22.9495C9.48263 22.95 9.48653 22.95 9.49087 22.95C9.75087 22.95 9.96667 22.7277 9.96667 22.4541C9.96667 22.2421 9.83407 22.0581 9.64123 21.9883C6.2946 20.7756 3.9 17.5311 3.9 13.725C3.9 11.3616 4.60547 9.2232 6.06667 7.6455V8.34255C6.06667 8.7057 6.35007 9 6.69977 9Z" fill="white"/>
<path d="M22.533 12.3751C22.533 6.84595 18.9636 1.62325 13.0547 1.35055C13.0504 1.3501 13.046 1.3501 13.0421 1.3501C12.7821 1.3501 12.5663 1.5724 12.5663 1.846C12.5663 2.0584 12.6989 2.242 12.8922 2.31175C16.2384 3.5245 18.633 6.769 18.633 10.5751C18.633 12.9385 17.9271 15.0769 16.4663 16.6546V15.9575C16.4663 15.5944 16.1829 15.3001 15.8332 15.3001C15.6824 15.3001 15.5364 15.3559 15.422 15.4576L11.0306 19.3546C10.9054 19.4662 10.833 19.6286 10.833 19.8001C10.833 19.9715 10.9054 20.134 11.0306 20.2456L15.422 24.1426C15.5364 24.2443 15.6824 24.3001 15.8332 24.3001C16.1829 24.3001 16.4663 24.0058 16.4663 23.6426V22.7588C20.0158 21.1456 22.533 17.0483 22.533 12.3751V12.3751Z" fill="white"/>
<path d="M16.7725 10.0319L13.3058 6.4319C13.2274 6.35045 13.1191 6.30005 12.9995 6.30005C12.8799 6.30005 12.7715 6.35045 12.6931 6.4319L5.75978 13.6319C5.68135 13.7133 5.63281 13.8258 5.63281 13.95C5.63281 14.0742 5.68135 14.1867 5.75978 14.2682L9.22645 17.8682C9.30488 17.9496 9.41321 18 9.53281 18C9.65241 18 9.76075 17.9496 9.83918 17.8682L16.7725 10.6682C16.8514 10.5867 16.8995 10.4742 16.8995 10.35C16.8995 10.2258 16.8514 10.1133 16.7725 10.0319ZM11.2661 13.5C10.5481 13.5 9.96615 12.8957 9.96615 12.15C9.96615 11.4044 10.5481 10.8 11.2661 10.8C11.9837 10.8 12.5661 11.4044 12.5661 12.15C12.5661 12.8957 11.9837 13.5 11.2661 13.5Z" fill="white"/>
</svg>
