<svg width="23" height="25" viewBox="0 0 23 25" fill="none" xmlns="http://www.w3.org/2000/svg">
<path d="M15.2436 19.3499C15.5695 19.754 15.5998 20.227 15.5998 20.6999H21.2332V13.0742C21.2332 11.6585 20.5333 10.3427 19.3802 9.58808L16.4665 7.68188V13.4999L14.4472 11.1689C14.2491 10.9435 13.9666 10.7999 13.6498 10.7999C13.0098 10.7999 12.5596 11.3462 12.5665 11.938C12.5691 12.1405 12.6267 12.3281 12.719 12.4915L14.3007 15.3773C14.2977 16.6913 14.4329 18.3428 15.2436 19.3499Z" fill="white"/>
<path d="M22.0998 24.3001H14.7331C14.4935 24.3001 14.2998 24.0989 14.2998 23.8501V23.4C14.2998 22.6544 14.8818 22.05 15.5998 22.05H21.2331C21.9507 22.05 22.5331 22.6544 22.5331 23.4V23.8501C22.5331 24.0989 22.3394 24.3001 22.0998 24.3001Z" fill="white"/>
<path d="M14.8598 4.05H11.6999C11.4603 4.05 11.2666 3.84885 11.2666 3.6V0.3186C11.2666 0.12645 11.417 0 11.5756 0C11.651 0 11.7277 0.02835 11.7896 0.0936L15.0769 3.5064C15.1402 3.57255 15.1666 3.65445 15.1666 3.7341C15.1666 3.8961 15.0431 4.05 14.8598 4.05Z" fill="white"/>
<path d="M13.0035 15.7396L11.5891 13.1602C11.3863 12.8007 11.2723 12.3795 11.2667 11.9556C11.2511 10.6105 12.2859 9.45 13.65 9.45C14.2047 9.45 14.742 9.65475 15.1667 10.0206V4.95H11.7C10.9833 4.95 10.4 4.3443 10.4 3.6V0H0.433333C0.194133 0 0 0.20115 0 0.45V17.55C0 17.7988 0.194133 18 0.433333 18H13.244C13.0676 17.2188 13.0143 16.425 13.0035 15.7396V15.7396ZM10.8294 7.01775L10.3922 9.7137C10.374 9.81855 10.2899 9.9 10.1833 9.9C10.1235 9.9 10.0694 9.8748 10.0299 9.8343L9.40637 9.18675L7.17643 11.5024C7.05857 11.6244 6.89607 11.7 6.71667 11.7C6.53727 11.7 6.37477 11.6244 6.2569 11.5024L4.55 9.72945L2.8431 11.502C2.72523 11.6244 2.56273 11.7 2.38333 11.7C2.0241 11.7 1.73333 11.3976 1.73333 11.025C1.73333 10.8387 1.80613 10.6699 1.92357 10.5475L4.09023 8.29755C4.2081 8.1756 4.3706 8.1 4.55 8.1C4.7294 8.1 4.8919 8.1756 5.00977 8.29755L6.71667 10.0701L8.48727 8.2314L7.8637 7.58385C7.82427 7.54335 7.8 7.4871 7.8 7.425C7.8 7.3143 7.87843 7.227 7.9794 7.2081L10.5768 6.75405C10.5881 6.75225 10.6054 6.75 10.6167 6.75C10.7363 6.75 10.8333 6.8508 10.8333 6.975C10.8333 6.9867 10.8307 7.00605 10.8294 7.01775V7.01775Z" fill="white"/>
</svg>
