<svg width="25" height="27" viewBox="0 0 25 27" fill="none" xmlns="http://www.w3.org/2000/svg">
<path d="M12.388 23.072C8.60085 25.7909 8.3628 24.2249 5.47515 26.1001L0 19.6687L0.8982 18.8227C1.22355 18.4969 1.42515 18.0469 1.42515 17.5501C1.42515 16.0309 2.15415 14.6044 3.38535 13.7147L7.74495 10.5643C7.929 10.4311 8.1531 10.3501 8.39745 10.3501C9.07515 10.3501 9.52515 10.8001 9.52515 11.4845C9.52515 11.7802 9.4041 12.0466 9.21555 12.2459L5.94405 15.7069L12.388 23.072Z" fill="white"/>
<path d="M21.226 13.4999C21.226 13.0031 21.0244 12.5531 20.699 12.2273L17.099 8.1773C16.7728 7.8515 16.3228 7.6499 15.826 7.6499C15.3143 7.6499 14.8549 7.86545 14.5273 8.2088L13.4365 9.3527C13.2452 9.5543 13.126 9.8252 13.126 10.1249C13.126 10.4354 13.252 10.7167 13.4554 10.9205L17.9554 15.8705C18.1592 16.0739 18.4405 16.1999 18.751 16.1999C19.0507 16.1999 19.3216 16.0807 19.5232 15.8899L20.6671 14.7991C21.0104 14.471 21.226 14.0116 21.226 13.4999Z" fill="white"/>
<path d="M8.62539 0L0.525391 7.65L4.35399 11.9038L7.21734 9.8343C7.56789 9.58275 7.97559 9.45 8.39769 9.45C9.51414 9.45 10.33 10.2262 10.4096 11.3148C10.8893 10.8175 11.531 10.4796 12.2501 10.3824C12.2393 10.2969 12.2254 10.2123 12.2254 10.125C12.2254 9.60705 12.4229 9.11295 12.782 8.7336L13.8751 7.5879C14.1581 7.2918 14.4947 7.07175 14.8628 6.93045L8.62539 0ZM6.60039 7.65C5.97894 7.65 5.47539 7.14645 5.47539 6.525C5.47539 5.90355 5.97894 5.4 6.60039 5.4C7.22184 5.4 7.72539 5.90355 7.72539 6.525C7.72539 7.14645 7.22184 7.65 6.60039 7.65Z" fill="white"/>
<path d="M21.8455 14.6895C21.7069 14.9689 21.5219 15.2268 21.2879 15.45L20.1431 16.5412C19.7624 16.9026 19.2683 17.1001 18.7504 17.1001C18.209 17.1001 17.7001 16.8891 17.3176 16.5066L15.6125 14.6314C15.158 15.8113 14.0159 16.6501 12.6754 16.6501C10.9357 16.6501 9.52535 15.2398 9.52535 13.5001C9.52535 13.4038 9.5312 13.3084 9.53975 13.2144L7.4873 15.3856L16.7254 25.6501L24.8254 18.0001L21.8455 14.6895ZM18.7504 20.7001C18.1289 20.7001 17.6254 20.1966 17.6254 19.5751C17.6254 18.9537 18.1289 18.4501 18.7504 18.4501C19.3718 18.4501 19.8754 18.9537 19.8754 19.5751C19.8754 20.1966 19.3718 20.7001 18.7504 20.7001Z" fill="white"/>
</svg>
