<svg width="39" height="39" viewBox="0 0 39 39" fill="none" xmlns="http://www.w3.org/2000/svg">
<path fill-rule="evenodd" clip-rule="evenodd" d="M13.8366 4.74631C17.38 2.69471 21.7354 2.73057 25.2456 4.84024C28.7213 6.99287 30.8337 10.8347 30.814 14.9674C30.7331 19.073 28.468 22.9323 25.6366 25.9157C24.0024 27.6454 22.1743 29.1749 20.1896 30.4729C19.9851 30.5907 19.7612 30.6696 19.5289 30.7056C19.3053 30.6961 19.0875 30.6303 18.8952 30.514C15.8651 28.5636 13.2068 26.074 11.0482 23.165C9.24193 20.7367 8.21572 17.8029 8.10895 14.7621C8.1066 10.6215 10.2931 6.7979 13.8366 4.74631ZM15.8843 16.4756C16.4803 17.9398 17.8872 18.8949 19.4481 18.8949C20.4706 18.9023 21.4536 18.4941 22.1779 17.7615C22.9023 17.0288 23.3078 16.0325 23.3042 14.9946C23.3096 13.4103 22.3736 11.9789 20.9331 11.3688C19.4926 10.7587 17.8319 11.0901 16.7262 12.2085C15.6206 13.3268 15.2882 15.0113 15.8843 16.4756Z" fill="white"/>
<ellipse opacity="0.4" cx="19.4616" cy="33.9374" rx="8.10905" ry="1.61607" fill="white"/>
</svg>
