<svg width="39" height="39" viewBox="0 0 39 39" fill="none" xmlns="http://www.w3.org/2000/svg">
<path opacity="0.4" d="M35.6798 25.761C35.6798 30.2699 32.0469 33.9222 27.5221 33.9384H27.5059H11.4337C6.9251 33.9384 3.24359 30.3022 3.24359 25.7933V25.7771C3.24359 25.7771 3.25332 18.6243 3.2663 15.0269C3.26792 14.3514 4.04639 13.9732 4.57672 14.3934C8.43014 17.4397 15.3212 22.9942 15.4072 23.0669C16.5586 23.9865 18.0183 24.5053 19.5103 24.5053C21.0024 24.5053 22.462 23.9865 23.6135 23.0492C23.6995 22.9926 30.4365 17.6046 34.3483 14.5081C34.8802 14.0863 35.6619 14.4645 35.6636 15.1384C35.6798 18.7084 35.6798 25.761 35.6798 25.761" fill="white"/>
<path d="M34.8301 9.16859C33.4257 6.53113 30.6621 4.84717 27.6196 4.84717H11.4339C8.39141 4.84717 5.62785 6.53113 4.22336 9.16859C3.90873 9.75846 4.05793 10.4938 4.58178 10.9107L16.6237 20.5087C17.4671 21.1874 18.4888 21.5252 19.5105 21.5252C19.517 21.5252 19.5219 21.5252 19.5268 21.5252C19.5316 21.5252 19.5381 21.5252 19.543 21.5252C20.5647 21.5252 21.5865 21.1874 22.4298 20.5087L34.4717 10.9107C34.9956 10.4938 35.1448 9.75846 34.8301 9.16859" fill="white"/>
</svg>
